ffmpeg version 3.4.8-0ubuntu0.2 Copyright (c) 2000-2020 the FFmpeg developers
  built with gcc 7 (Ubuntu 7.5.0-3ubuntu1~18.04)
  configuration: --prefix=/usr --extra-version=0ubuntu0.2 --toolchain=hardened --libdir=/usr/lib/x86_64-linux-gnu --incdir=/usr/include/x86_64-linux-gnu --enable-gpl --disable-stripping --enable-avresample --enable-avisynth --enable-gnutls --enable-ladspa --enable-libass --enable-libbluray --enable-libbs2b --enable-libcaca --enable-libcdio --enable-libflite --enable-libfontconfig --enable-libfreetype --enable-libfribidi --enable-libgme --enable-libgsm --enable-libmp3lame --enable-libmysofa --enable-libopenjpeg --enable-libopenmpt --enable-libopus --enable-libpulse --enable-librubberband --enable-librsvg --enable-libshine --enable-libsnappy --enable-libsoxr --enable-libspeex --enable-libssh --enable-libtheora --enable-libtwolame --enable-libvorbis --enable-libvpx --enable-libwavpack --enable-libwebp --enable-libx265 --enable-libxml2 --enable-libxvid --enable-libzmq --enable-libzvbi --enable-omx --enable-openal --enable-opengl --enable-sdl2 --enable-libdc1394 --enable-libdrm --enable-libiec61883 --enable-chromaprint --enable-frei0r --enable-libopencv --enable-libx264 --enable-shared
  libavutil      55. 78.100 / 55. 78.100
  libavcodec     57.107.100 / 57.107.100
  libavformat    57. 83.100 / 57. 83.100
  libavdevice    57. 10.100 / 57. 10.100
  libavfilter     6.107.100 /  6.107.100
  libavresample   3.  7.  0 /  3.  7.  0
  libswscale      4.  8.100 /  4.  8.100
  libswresample   2.  9.100 /  2.  9.100
  libpostproc    54.  7.100 / 54.  7.100
[h264 @ 0x561537717940] non-existing PPS 0 referenced
    Last message repeated 1 times
[h264 @ 0x561537717940] decode_slice_header error
[h264 @ 0x561537717940] no frame!
[h264 @ 0x561537717940] non-existing PPS 0 referenced
    Last message repeated 1 times
[h264 @ 0x561537717940] decode_slice_header error
[h264 @ 0x561537717940] no frame!
Input #0, matroska,webm, from '../.././Samples/20110805-112659-ch0.mkv':
  Metadata:
    ENCODER         : Lavf53.6.0
  Duration: 00:00:18.07, start: 0.067000, bitrate: 2792 kb/s
    Stream #0:0: Video: h264 (Baseline), yuv420p(progressive), 720x480, SAR 159:239 DAR 477:478, 15 fps, 15 tbr, 1k tbn, 2k tbc (default)
Stream mapping:
  Stream #0:0 -> #0:0 (h264 (native) -> h264 (libx264))
Press [q] to stop, [?] for help
[libx264 @ 0x56153771aec0] using SAR=159/239
[libx264 @ 0x56153771aec0] using cpu capabilities: MMX2 SSE2Fast SSSE3 SSE4.2 AVX FMA3 BMI2 AVX2
[libx264 @ 0x56153771aec0] profile High, level 2.2
[libx264 @ 0x56153771aec0] 264 - core 152 r2854 e9a5903 - H.264/MPEG-4 AVC codec - Copyleft 2003-2017 - http://www.videolan.org/x264.html - options: cabac=1 ref=3 deblock=1:0:0 analyse=0x3:0x113 me=hex subme=7 psy=1 psy_rd=1.00:0.00 mixed_ref=1 me_range=16 chroma_me=1 trellis=1 8x8dct=1 cqm=0 deadzone=21,11 fast_pskip=1 chroma_qp_offset=-2 threads=6 lookahead_threads=1 sliced_threads=0 nr=0 decimate=1 interlaced=0 bluray_compat=0 constrained_intra=0 bframes=3 b_pyramid=2 b_adapt=1 b_bias=0 direct=1 weightb=1 open_gop=0 weightp=2 keyint=250 keyint_min=15 scenecut=40 intra_refresh=0 rc_lookahead=40 rc=crf mbtree=1 crf=23.0 qcomp=0.60 qpmin=0 qpmax=69 qpstep=4 ip_ratio=1.40 aq=1:1.00
Output #0, mov, to '/home/aleksandr/Pract/Samples/20110805-112659-ch0.mkv_tc/output_std3.mov':
  Metadata:
    encoder         : Lavf57.83.100
    Stream #0:0: Video: h264 (libx264) (avc1 / 0x31637661), yuv420p, 720x480 [SAR 159:239 DAR 477:478], q=-1--1, 15 fps, 15360 tbn, 15 tbc (default)
    Metadata:
      encoder         : Lavc57.107.100 libx264
    Side data:
      cpb: bitrate max/min/avg: 0/0/0 buffer size: 0 vbv_delay: -1
frame=   89 fps=0.0 q=27.0 size=     256kB time=00:00:02.53 bitrate= 827.9kbits/s speed=4.88x    frame=  142 fps=138 q=27.0 size=     512kB time=00:00:06.06 bitrate= 691.4kbits/s speed= 5.9x    frame=  196 fps=128 q=27.0 size=     768kB time=00:00:09.66 bitrate= 650.9kbits/s speed=6.32x    frame=  247 fps=121 q=27.0 size=    1024kB time=00:00:13.06 bitrate= 642.0kbits/s speed= 6.4x    frame=  268 fps=104 q=-1.0 Lsize=    1418kB time=00:00:17.80 bitrate= 652.7kbits/s speed=6.89x    
video:1414kB audio:0kB subtitle:0kB other streams:0kB global headers:0kB muxing overhead: 0.285280%
[libx264 @ 0x56153771aec0] frame I:2     Avg QP:20.97  size: 51810
[libx264 @ 0x56153771aec0] frame P:69    Avg QP:22.24  size: 15359
[libx264 @ 0x56153771aec0] frame B:197   Avg QP:25.62  size:  1442
[libx264 @ 0x56153771aec0] consecutive B-frames:  1.9%  0.0%  1.1% 97.0%
[libx264 @ 0x56153771aec0] mb I  I16..4: 23.4% 14.1% 62.6%
[libx264 @ 0x56153771aec0] mb P  I16..4:  7.7%  2.9%  0.4%  P16..4: 46.3% 17.4% 15.1%  0.0%  0.0%    skip:10.2%
[libx264 @ 0x56153771aec0] mb B  I16..4:  1.1%  0.6%  0.0%  B16..8: 36.6%  2.7%  0.4%  direct: 2.7%  skip:55.7%  L0:54.0% L1:38.8% BI: 7.2%
[libx264 @ 0x56153771aec0] 8x8 transform intra:27.1% inter:53.0%
[libx264 @ 0x56153771aec0] coded y,uvDC,uvAC intra: 39.8% 62.3% 17.4% inter: 14.8% 28.1% 6.8%
[libx264 @ 0x56153771aec0] i16 v,h,dc,p:  6% 57%  9% 27%
[libx264 @ 0x56153771aec0] i8 v,h,dc,ddl,ddr,vr,hd,vl,hu: 11% 55% 24%  1%  2%  1%  3%  1%  3%
[libx264 @ 0x56153771aec0] i4 v,h,dc,ddl,ddr,vr,hd,vl,hu: 18% 53% 11%  3%  3%  2%  4%  2%  4%
[libx264 @ 0x56153771aec0] i8c dc,h,v,p: 53% 31% 14%  1%
[libx264 @ 0x56153771aec0] Weighted P-Frames: Y:26.1% UV:4.3%
[libx264 @ 0x56153771aec0] ref P L0: 38.4% 12.2% 27.5% 17.5%  4.4%
[libx264 @ 0x56153771aec0] ref B L0: 81.7% 14.3%  4.0%
[libx264 @ 0x56153771aec0] ref B L1: 95.7%  4.3%
[libx264 @ 0x56153771aec0] kb/s:648.07
	Command being timed: "/usr/bin/ffmpeg -i ../.././Samples/20110805-112659-ch0.mkv -c:v libx264 -f mov /home/aleksandr/Pract/Samples/20110805-112659-ch0.mkv_tc/output_std3.mov"
	User time (seconds): 9.54
	System time (seconds): 0.07
	Percent of CPU this job got: 363%
	Elapsed (wall clock) time (h:mm:ss or m:ss): 0:02.64
	Average shared text size (kbytes): 0
	Average unshared data size (kbytes): 0
	Average stack size (kbytes): 0
	Average total size (kbytes): 0
	Maximum resident set size (kbytes): 145404
	Average resident set size (kbytes): 0
	Major (requiring I/O) page faults: 0
	Minor (reclaiming a frame) page faults: 25683
	Voluntary context switches: 3928
	Involuntary context switches: 1163
	Swaps: 0
	File system inputs: 0
	File system outputs: 2856
	Socket messages sent: 0
	Socket messages received: 0
	Signals delivered: 0
	Page size (bytes): 4096
	Exit status: 0
